# xmcd CD database file
#
# Track frame offsets:
#	150
#	14730
#	39335
#	59772
#	82157
#	103095
#	125217
#	147552
#	162845
#	184862
#	203266
#
# Disc length: 2882 seconds
#
# Revision: 0
# Processed by: cddbd v1.5.2PL0 Copyright (c) Steve Scherf et al.
# Submitted via: CDex 1.70beta2
#
DISCID=a30b400b
DTITLE=Tiffany and Hank Jones Trio Plus - My Favorite Things
DYEAR=2007
DGENRE=Jazz
TTITLE0='s Wonderful
TTITLE1=You Don't Know What Love Is
TTITLE2=Lullaby of Birdland
TTITLE3=My Favorite Things
TTITLE4=Do You Know What It Means to Miss New Orleans?
TTITLE5=That's All
TTITLE6=Black Coffee
TTITLE7=The Way You Look Tonight
TTITLE8=All of Me
TTITLE9=Fly Me to the Moon
TTITLE10=Body and Soul
EXTD=YEAR: 2007
EXTT0=
EXTT1=
EXTT2=
EXTT3=
EXTT4=
EXTT5=
EXTT6=
EXTT7=
EXTT8=
EXTT9=
EXTT10=
PLAYORDER=
